<svg width="16" height="16" viewBox="0 0 16 16" fill="none" xmlns="http://www.w3.org/2000/svg">
<path d="M2.1251 1.01942C2.2051 1.01942 2.2827 1.05154 2.3396 1.10809L5.7629 4.52928C5.9089 4.6752 6.1544 4.53378 6.1007 4.33431L5.3141 1.39995C5.2625 1.20828 5.4077 1.01942 5.6069 1.01942H6.8102C6.9472 1.01942 7.0672 1.1114 7.1031 1.24371L7.7066 3.49417C7.7429 3.63099 7.7429 3.77492 7.7066 3.91174L7.2735 5.52684C7.0429 6.38599 6.3718 7.05708 5.5125 7.28678L3.8963 7.71966C3.7594 7.75589 3.6154 7.75589 3.4784 7.71966L1.2266 7.11653C1.0925 7.0823 1.0005 6.9623 1.0005 6.82508V5.62173C1.0005 5.42345 1.189 5.27793 1.3808 5.32947C2.4121 5.60611 3.5827 5.91939 4.3178 6.11606C4.5174 6.1692 4.6589 5.92439 4.5125 5.77846L1.0889 2.35748C1.0324 2.30013 1.0002 2.22347 1.0002 2.1431C1.0002 1.52266 1.5039 1.01942 2.1251 1.01942Z" fill="#1A1A1A"/>
<path d="M13.8753 1C13.7953 1 13.7177 1.03213 13.6608 1.08868L10.2375 4.50986C10.0915 4.65579 9.846 4.51436 9.8997 4.31489L10.6863 1.38053C10.7378 1.18886 10.5926 1 10.3934 1H9.1901C9.0531 1 8.9331 1.09198 8.8972 1.2243L8.2937 3.47476C8.2574 3.61158 8.2574 3.7555 8.2937 3.89232L8.7268 5.50743C8.9574 6.36658 9.6285 7.03766 10.4878 7.26736L12.104 7.70024C12.241 7.73647 12.3849 7.73647 12.5219 7.70024L14.7737 7.09711C14.9078 7.06288 14.9998 6.94288 14.9998 6.80566V5.60231C14.9998 5.40404 14.8113 5.25851 14.6195 5.31006C13.5882 5.5867 12.4176 5.89997 11.6825 6.09664C11.4829 6.14979 11.3414 5.90497 11.4878 5.75905L14.9115 2.33827C14.968 2.28092 15.0002 2.20425 15.0002 2.12388C15.0002 1.50344 14.4966 1 13.8753 1Z" fill="#1A1A1A"/>
<path d="M13.8753 15C13.7953 15 13.7177 14.9679 13.6608 14.9114L10.2375 11.4901C10.0915 11.3442 9.846 11.4856 9.8997 11.6851L10.6863 14.6195C10.7378 14.8111 10.5926 15 10.3934 15H9.1901C9.0531 15 8.9331 14.9081 8.8972 14.7758L8.2937 12.5253C8.2574 12.3884 8.2574 12.2446 8.2937 12.1078L8.7268 10.4926C8.9574 9.63342 9.6285 8.96234 10.4878 8.73274L12.104 8.29986C12.241 8.26363 12.3849 8.26363 12.5219 8.29986L14.7737 8.90299C14.9078 8.93722 14.9998 9.05712 14.9998 9.19444V10.3978C14.9998 10.5961 14.8113 10.7416 14.6195 10.69C13.5882 10.4134 12.4176 10.1001 11.6825 9.90346C11.4829 9.85031 11.3414 10.0951 11.4878 10.2411L14.9115 13.6618C14.968 13.7192 15.0002 13.7959 15.0002 13.8762C15.0002 14.4967 14.4966 15 13.8753 15Z" fill="#1A1A1A"/>
<path d="M2.1251 15C2.2051 15 2.2827 14.9679 2.3396 14.9114L5.7629 11.4901C5.9089 11.3442 6.1544 11.4856 6.1007 11.6851L5.3141 14.6195C5.2625 14.8111 5.4077 15 5.6069 15H6.8102C6.9472 15 7.0672 14.9081 7.1031 14.7758L7.7066 12.5253C7.7429 12.3884 7.7429 12.2446 7.7066 12.1078L7.2735 10.4926C7.0429 9.63342 6.3718 8.96234 5.5125 8.73274L3.8963 8.29986C3.7594 8.26363 3.6154 8.26363 3.4784 8.29986L1.2266 8.90299C1.0925 8.93722 1.0005 9.05712 1.0005 9.19444V10.3978C1.0005 10.5961 1.189 10.7416 1.3808 10.69C2.4121 10.4134 3.5827 10.1001 4.3178 9.90346C4.5174 9.85031 4.6589 10.0951 4.5125 10.2411L1.0887 13.6618C1.0322 13.7192 1 13.7959 1 13.8762C1 14.4967 1.5039 15 2.1251 15Z" fill="#1A1A1A"/>
</svg>
